<?xml version="1.0" encoding="utf-8"?>
<svg id="svg2" viewBox="-674.906 -429.486 1456.271 971.889" xmlns="http://www.w3.org/2000/svg" xmlns:bx="https://boxy-svg.com">
  <desc>Source: openclipart.org/detail/209545</desc>
  <title>Demo - Cherry</title>
  <defs>
    <bx:export>
      <bx:file format="svg" href="#object-0" excluded="true"/>
      <bx:file format="svg" href="#object-1" path="Untitled 2.svg"/>
      <bx:file format="svg" href="#object-2" path="Untitled 3.svg"/>
      <bx:file format="svg" href="#object-3" path="Untitled 4.svg"/>
      <bx:file format="svg" href="#object-4" path="Untitled 5.svg"/>
      <bx:file format="svg" href="#object-0" path="Untitled 6.svg"/>
      <bx:file format="svg" href="#object-5" path="Untitled 7.svg"/>
      <bx:file format="svg" href="#object-6" path="Untitled 8.svg"/>
      <bx:file format="svg" href="#object-7" path="Untitled 9.svg"/>
      <bx:file format="svg" href="#object-8" path="Untitled 10.svg"/>
      <bx:file format="svg" href="#object-9" path="Untitled 11.svg"/>
      <bx:file format="svg" href="#object-10" path="Untitled 12.svg"/>
      <bx:file format="svg" href="#object-11" path="Untitled 13.svg"/>
      <bx:file format="svg" href="#object-12" path="Untitled 14.svg"/>
      <bx:file format="svg" href="#object-13" path="Untitled 15.svg"/>
      <bx:file format="svg" href="#object-14" path="Untitled 16.svg"/>
    </bx:export>
  </defs>
  <g transform="matrix(0.1, 0, 0, -0.1, -1344.842549, 862.315443)" fill="#000000" stroke="none">
    <g>
      <a>
        <path d="M 13880 12374 C 13644 12347 13514 12320 13272 12251 C 12825 12122 12363 11838 12014 11479 C 11763 11219 11584 10944 11416 10557 C 11275 10234 11189 9807 11189 9435 C 11189 8795 11383 8215 11782 7660 C 11941 7439 12214 7176 12471 6998 C 12889 6708 13367 6534 13878 6485 C 14380 6437 14896 6524 15365 6738 C 15813 6942 16248 7301 16540 7710 C 16608 7805 16735 8010 16758 8063 C 16786 8127 16760 8218 16705 8244 C 16629 8280 16556 8257 16514 8182 C 16417 8010 16388 7964 16321 7870 C 16212 7716 16136 7628 15985 7482 C 15854 7355 15672 7212 15534 7128 C 15251 6956 14887 6825 14535 6769 C 14350 6740 13986 6737 13810 6764 C 13416 6823 13095 6935 12755 7133 C 12613 7215 12384 7396 12256 7528 C 12057 7731 11996 7810 11846 8055 C 11622 8423 11496 8823 11461 9280 C 11444 9492 11481 9847 11544 10098 C 11634 10450 11820 10820 12055 11110 C 12165 11246 12381 11460 12500 11552 C 12830 11806 13203 11980 13591 12059 C 13832 12109 14222 12124 14474 12095 C 14954 12038 15414 11844 15811 11529 C 15986 11391 16229 11131 16341 10964 C 16425 10838 16478 10754 16498 10713 C 16510 10691 16535 10659 16555 10642 C 16586 10615 16598 10610 16644 10610 C 16694 10610 16700 10613 16734 10650 C 16764 10684 16770 10697 16770 10735 C 16770 10760 16764 10795 16757 10813 C 16721 10899 16542 11162 16410 11325 C 16348 11401 16098 11651 16022 11713 C 15800 11894 15509 12066 15253 12169 C 15063 12246 14788 12320 14560 12355 C 14460 12371 13972 12385 13880 12374 Z" style="fill: rgb(74, 127, 169);" id="object-1"/>
        <path d="M 13980 11680 C 13842 11667 13752 11652 13605 11619 C 13433 11579 13358 11552 13182 11469 C 12944 11356 12745 11227 12686 11147 C 12644 11091 12672 10992 12740 10957 C 12799 10927 12838 10939 12945 11019 C 13102 11137 13305 11244 13495 11308 C 13749 11393 14061 11434 14298 11412 C 14668 11379 15048 11238 15325 11033 C 15375 10997 15478 10903 15556 10826 C 15699 10682 15797 10550 15886 10383 C 15935 10289 15968 10260 16026 10260 C 16113 10260 16160 10307 16160 10395 C 16160 10474 16063 10645 15899 10853 C 15697 11110 15458 11299 15145 11451 C 14919 11560 14698 11629 14460 11664 C 14326 11684 14102 11691 13980 11680 Z" style="fill: rgb(74, 127, 169);" id="object-2"/>
        <path d="M 12253 10629 C 12215 10618 12187 10583 12131 10480 C 12053 10334 11954 10055 11921 9890 C 11909 9831 11885 9632 11875 9510 C 11867 9409 11885 9171 11915 9001 C 11946 8825 12021 8598 12106 8425 C 12179 8276 12209 8241 12271 8230 C 12405 8205 12470 8329 12391 8456 C 12317 8577 12226 8821 12190 8994 C 12092 9474 12158 9966 12373 10355 C 12437 10470 12445 10524 12406 10575 C 12365 10628 12313 10647 12253 10629 Z" style="fill: rgb(74, 127, 169);" id="object-3"/>
        <path d="M 13234 10530 C 13067 10486 12993 10418 12955 10270 C 12924 10152 12953 10043 13042 9945 C 13094 9887 13158 9850 13244 9825 C 13375 9787 13586 9828 13711 9915 C 13770 9956 14040 10215 14040 10230 C 14040 10246 13884 10384 13814 10430 C 13741 10478 13636 10518 13532 10539 C 13451 10556 13315 10551 13234 10530 Z" style="fill: rgb(74, 127, 169);" id="object-4"/>
        <path d="M 14745 10536 C 14629 10509 14517 10461 14445 10408 C 14407 10379 14265 10245 14130 10110 C 13882 9860 13818 9808 13679 9739 C 13582 9690 13491 9670 13368 9670 C 13231 9670 13134 9699 13026 9771 C 12935 9832 12893 9881 12843 9985 C 12807 10060 12805 10071 12805 10160 C 12805 10212 12808 10267 12813 10283 C 12825 10326 12809 10315 12754 10243 C 12692 10162 12662 10102 12626 9995 C 12549 9765 12574 9551 12706 9326 C 12756 9240 12757 9239 13502 8488 C 13891 8095 13919 8068 13985 8038 C 14102 7984 14212 7989 14336 8056 C 14394 8087 15460 9150 15535 9251 C 15594 9331 15641 9425 15672 9520 C 15692 9585 15695 9616 15695 9745 C 15695 9886 15693 9900 15663 9990 C 15612 10146 15521 10277 15391 10380 C 15314 10442 15243 10479 15130 10515 C 15026 10549 14844 10559 14745 10536 Z" style="fill: rgb(74, 127, 169);" id="object-0"/>
        <path d="M 15959 8575 C 15945 8568 15921 8537 15905 8508 C 15746 8213 15516 7952 15265 7783 C 14999 7604 14742 7505 14410 7454 C 13912 7377 13344 7534 12902 7872 C 12853 7909 12831 7920 12802 7920 C 12726 7920 12670 7860 12670 7777 C 12670 7724 12688 7698 12768 7636 C 12995 7462 13253 7332 13522 7256 C 13775 7184 13844 7175 14150 7175 C 14462 7175 14543 7186 14785 7259 C 15163 7374 15455 7548 15736 7828 C 15945 8035 16160 8353 16160 8453 C 16160 8556 16049 8624 15959 8575 Z M 12841 7613 C 12854 7597 12853 7596 12838 7609 C 12821 7622 12816 7630 12824 7630 C 12826 7630 12834 7622 12841 7613 Z" style="fill: rgb(74, 127, 169);" id="object-5"/>
        <path d="M 13805 5664 C 13673 5643 13529 5580 13443 5505 C 13357 5429 13275 5290 13238 5152 C 13220 5087 13217 5045 13216 4885 C 13215 4665 13224 4619 13295 4474 C 13418 4224 13697 4089 14032 4120 C 14148 4131 14214 4147 14292 4182 C 14526 4290 14645 4477 14672 4780 C 14695 5035 14643 5258 14522 5423 C 14472 5489 14439 5518 14347 5572 C 14233 5639 14141 5662 13975 5665 C 13898 5667 13822 5666 13805 5664 Z M 14065 5388 C 14242 5343 14332 5171 14333 4875 C 14333 4738 14318 4655 14278 4577 C 14247 4516 14175 4445 14117 4419 C 14072 4398 14050 4395 13945 4395 C 13837 4395 13820 4397 13770 4421 C 13677 4465 13615 4543 13577 4665 C 13559 4724 13555 4759 13555 4890 C 13555 5057 13566 5113 13617 5213 C 13698 5373 13866 5439 14065 5388 Z" style="" id="object-6"/>
        <path d="M 15508 5660 C 15323 5627 15186 5550 15081 5421 C 14886 5182 14855 4736 15013 4437 C 15063 4342 15161 4250 15271 4196 C 15386 4139 15479 4120 15638 4120 C 15754 4120 15866 4137 15993 4175 L 16050 4191 L 16050 4326 C 16050 4400 16047 4460 16043 4460 C 16038 4460 15988 4446 15930 4428 C 15833 4399 15813 4397 15675 4396 C 15538 4395 15521 4397 15473 4419 C 15411 4447 15327 4532 15299 4595 C 15232 4746 15235 5033 15305 5187 C 15349 5283 15459 5374 15560 5395 C 15652 5415 15825 5389 15918 5341 C 15998 5300 15999 5301 16051 5435 C 16105 5572 16107 5565 16011 5601 C 15895 5644 15807 5661 15680 5665 C 15611 5667 15534 5665 15508 5660 Z" style="" id="object-7"/>
        <path d="M 7900 5648 C 7899 5624 7898 4307 7899 4238 L 7900 4140 L 8065 4140 L 8230 4140 L 8228 4425 C 8225 4740 8220 4720 8293 4719 C 8397 4718 8404 4713 8472 4610 C 8600 4413 8760 4156 8760 4148 C 8760 4144 8843 4140 8945 4140 C 9047 4140 9130 4142 9130 4145 C 9130 4148 9034 4293 8916 4468 L 8702 4786 L 8758 4815 C 8919 4900 9013 5091 8982 5274 C 8959 5418 8884 5516 8749 5583 C 8639 5637 8533 5650 8183 5650 C 8027 5650 7900 5649 7900 5648 Z M 8548 5354 C 8590 5333 8611 5314 8627 5285 C 8657 5232 8658 5152 8629 5092 C 8610 5054 8597 5043 8541 5016 C 8480 4987 8465 4985 8353 4982 L 8230 4978 L 8230 5178 C 8230 5287 8233 5380 8238 5385 C 8242 5389 8300 5390 8368 5387 C 8477 5383 8497 5379 8548 5354 Z" style="" id="object-8"/>
        <path d="M 9696 5618 C 9688 5600 9643 5477 9596 5345 C 9548 5213 9489 5053 9465 4990 C 9441 4927 9387 4781 9347 4665 C 9306 4550 9247 4385 9216 4300 C 9185 4215 9160 4144 9160 4143 C 9160 4141 9238 4140 9333 4140 L 9505 4140 L 9523 4203 C 9533 4237 9557 4316 9576 4378 L 9611 4490 L 9898 4490 C 10101 4490 10189 4487 10197 4479 C 10204 4472 10233 4394 10262 4304 L 10315 4140 L 10493 4140 C 10590 4140 10670 4142 10670 4145 C 10670 4152 10601 4340 10545 4485 C 10475 4666 10341 5028 10280 5200 C 10253 5274 10210 5394 10183 5465 C 10155 5537 10130 5607 10126 5623 L 10120 5650 L 9914 5650 L 9709 5650 L 9696 5618 Z M 9949 5267 C 9967 5208 10010 5072 10045 4965 C 10081 4858 10110 4768 10110 4765 C 10110 4763 10020 4759 9910 4758 C 9795 4756 9710 4759 9710 4764 C 9710 4769 9748 4891 9795 5034 C 9841 5178 9885 5316 9892 5342 C 9899 5369 9907 5387 9911 5382 C 9915 5378 9932 5327 9949 5267 Z" style="" id="object-9"/>
        <path d="M 10868 5644 C 10857 5634 10858 4168 10869 4152 C 10876 4141 10939 4139 11206 4142 C 11521 4146 11539 4148 11620 4172 C 11760 4213 11835 4255 11933 4349 C 12038 4450 12086 4537 12120 4684 C 12140 4768 12142 4799 12137 4932 C 12134 5029 12126 5107 12116 5145 C 12064 5330 11947 5473 11780 5553 C 11613 5634 11564 5642 11195 5647 C 11019 5650 10872 5648 10868 5644 Z M 11542 5361 C 11651 5319 11724 5242 11771 5121 C 11789 5076 11794 5037 11798 4929 C 11804 4730 11777 4630 11690 4536 C 11604 4443 11507 4409 11316 4407 L 11195 4405 L 11192 4885 C 11191 5149 11192 5371 11195 5379 C 11204 5402 11470 5389 11542 5361 Z" style="" id="object-10"/>
        <path d="M 12338 5642 C 12336 5638 12336 5596 12338 5549 L 12341 5463 L 12383 5443 C 12406 5431 12442 5417 12462 5410 C 12483 5404 12502 5394 12505 5389 C 12513 5378 12512 4408 12504 4401 C 12501 4398 12462 4382 12417 4365 L 12335 4334 L 12332 4237 L 12329 4140 L 12675 4140 L 13021 4140 L 13018 4237 L 13015 4333 L 12930 4364 L 12845 4396 L 12842 4887 C 12840 5272 12843 5380 12852 5387 C 12859 5393 12888 5405 12915 5414 C 12943 5423 12979 5439 12996 5449 C 13027 5468 13027 5469 13028 5549 C 13028 5594 13024 5633 13019 5636 C 13005 5644 12341 5651 12338 5642 Z" style="" id="object-11"/>
        <path d="M 16720 5628 C 16691 5558 16464 4943 16420 4815 C 16400 4755 16364 4658 16342 4600 C 16291 4469 16180 4160 16180 4149 C 16180 4144 16258 4140 16353 4140 L 16525 4140 L 16579 4315 L 16633 4490 L 16921 4490 C 17185 4490 17208 4489 17215 4473 C 17246 4394 17320 4188 17326 4167 L 17332 4140 L 17511 4140 L 17689 4140 L 17671 4193 C 17661 4221 17628 4308 17597 4385 C 17567 4462 17508 4620 17465 4735 C 17422 4851 17339 5077 17279 5237 C 17219 5398 17170 5532 17170 5534 C 17170 5537 17161 5564 17149 5595 L 17129 5650 L 16929 5650 C 16732 5650 16729 5650 16720 5628 Z M 16960 5295 C 16973 5251 17016 5115 17057 4992 C 17097 4870 17130 4767 17130 4765 C 17130 4763 17040 4759 16929 4758 L 16728 4755 L 16734 4785 C 16738 4802 16776 4925 16820 5060 C 16864 5195 16904 5325 16910 5349 C 16916 5373 16925 5389 16929 5384 C 16933 5379 16947 5339 16960 5295 Z" style="" id="object-12"/>
        <path d="M 17877 5643 C 17873 5640 17870 5300 17870 4888 L 17870 4140 L 18035 4140 L 18200 4140 L 18202 4428 L 18205 4715 L 18255 4718 C 18283 4720 18323 4719 18345 4715 C 18385 4710 18386 4708 18521 4497 C 18595 4381 18676 4253 18701 4213 L 18745 4141 L 18928 4140 C 19028 4140 19110 4144 19110 4148 C 19110 4153 19097 4175 19081 4198 C 18965 4357 18690 4776 18694 4786 C 18697 4793 18718 4809 18742 4821 C 18809 4855 18844 4886 18888 4948 C 18939 5021 18960 5093 18960 5194 C 18959 5383 18896 5496 18750 5570 C 18618 5636 18518 5650 18164 5650 C 18010 5650 17880 5647 17877 5643 Z M 18473 5375 C 18552 5355 18575 5337 18606 5274 C 18629 5228 18632 5212 18626 5168 C 18608 5033 18519 4980 18308 4980 L 18200 4980 L 18200 5185 L 18200 5390 L 18308 5390 C 18371 5390 18439 5384 18473 5375 Z" style="" id="object-13"/>
        <path d="M 19428 5642 L 19310 5639 L 19310 4890 L 19310 4140 L 19768 4140 L 20225 4140 L 20227 4270 L 20230 4400 L 19937 4402 L 19645 4405 L 19642 4598 L 19640 4790 L 19910 4790 C 20119 4790 20180 4793 20180 4803 C 20180 4809 20181 4869 20182 4935 L 20184 5055 L 19912 5058 L 19640 5060 L 19640 5225 L 19640 5390 L 19935 5390 L 20231 5390 L 20228 5518 L 20225 5645 L 19885 5645 C 19698 5645 19492 5644 19428 5642 Z" style="" id="object-14"/>
      </a>
    </g>
  </g>
</svg>