<?xml version="1.0" standalone="no"?>
<!DOCTYPE svg PUBLIC "-//W3C//DTD SVG 20010904//EN"
 "http://www.w3.org/TR/2001/REC-SVG-20010904/DTD/svg10.dtd">
<svg version="1.0" xmlns="http://www.w3.org/2000/svg"
 width="2816.000000pt" height="1536.000000pt" viewBox="0 0 2816.000000 1536.000000"
 preserveAspectRatio="xMidYMid meet">

<g transform="translate(0.000000,1536.000000) scale(0.100000,-0.100000)"
fill="#000000" stroke="none">
<path d="M13880 12374 c-236 -27 -366 -54 -608 -123 -447 -129 -909 -413
-1258 -772 -251 -260 -430 -535 -598 -922 -141 -323 -227 -750 -227 -1122 0
-640 194 -1220 593 -1775 159 -221 432 -484 689 -662 418 -290 896 -464 1407
-513 502 -48 1018 39 1487 253 448 204 883 563 1175 972 68 95 195 300 218
353 28 64 2 155 -53 181 -76 36 -149 13 -191 -62 -97 -172 -126 -218 -193
-312 -109 -154 -185 -242 -336 -388 -131 -127 -313 -270 -451 -354 -283 -172
-647 -303 -999 -359 -185 -29 -549 -32 -725 -5 -394 59 -715 171 -1055 369
-142 82 -371 263 -499 395 -199 203 -260 282 -410 527 -224 368 -350 768 -385
1225 -17 212 20 567 83 818 90 352 276 722 511 1012 110 136 326 350 445 442
330 254 703 428 1091 507 241 50 631 65 883 36 480 -57 940 -251 1337 -566
175 -138 418 -398 530 -565 84 -126 137 -210 157 -251 12 -22 37 -54 57 -71
31 -27 43 -32 89 -32 50 0 56 3 90 40 30 34 36 47 36 85 0 25 -6 60 -13 78
-36 86 -215 349 -347 512 -62 76 -312 326 -388 388 -222 181 -513 353 -769
456 -190 77 -465 151 -693 186 -100 16 -588 30 -680 19z"/>
<path d="M13980 11680 c-138 -13 -228 -28 -375 -61 -172 -40 -247 -67 -423
-150 -238 -113 -437 -242 -496 -322 -42 -56 -14 -155 54 -190 59 -30 98 -18
205 62 157 118 360 225 550 289 254 85 566 126 803 104 370 -33 750 -174 1027
-379 50 -36 153 -130 231 -207 143 -144 241 -276 330 -443 49 -94 82 -123 140
-123 87 0 134 47 134 135 0 79 -97 250 -261 458 -202 257 -441 446 -754 598
-226 109 -447 178 -685 213 -134 20 -358 27 -480 16z"/>
<path d="M12253 10629 c-38 -11 -66 -46 -122 -149 -78 -146 -177 -425 -210
-590 -12 -59 -36 -258 -46 -380 -8 -101 10 -339 40 -509 31 -176 106 -403 191
-576 73 -149 103 -184 165 -195 134 -25 199 99 120 226 -74 121 -165 365 -201
538 -98 480 -32 972 183 1361 64 115 72 169 33 220 -41 53 -93 72 -153 54z"/>
<path d="M13234 10530 c-167 -44 -241 -112 -279 -260 -31 -118 -2 -227 87
-325 52 -58 116 -95 202 -120 131 -38 342 3 467 90 59 41 329 300 329 315 0
16 -156 154 -226 200 -73 48 -178 88 -282 109 -81 17 -217 12 -298 -9z"/>
<path d="M14745 10536 c-116 -27 -228 -75 -300 -128 -38 -29 -180 -163 -315
-298 -248 -250 -312 -302 -451 -371 -97 -49 -188 -69 -311 -69 -137 0 -234 29
-342 101 -91 61 -133 110 -183 214 -36 75 -38 86 -38 175 0 52 3 107 8 123 12
43 -4 32 -59 -40 -62 -81 -92 -141 -128 -248 -77 -230 -52 -444 80 -669 50
-86 51 -87 796 -838 389 -393 417 -420 483 -450 117 -54 227 -49 351 18 58 31
1124 1094 1199 1195 59 80 106 174 137 269 20 65 23 96 23 225 0 141 -2 155
-32 245 -51 156 -142 287 -272 390 -77 62 -148 99 -261 135 -104 34 -286 44
-385 21z"/>
<path d="M15959 8575 c-14 -7 -38 -38 -54 -67 -159 -295 -389 -556 -640 -725
-266 -179 -523 -278 -855 -329 -498 -77 -1066 80 -1508 418 -49 37 -71 48
-100 48 -76 0 -132 -60 -132 -143 0 -53 18 -79 98 -141 227 -174 485 -304 754
-380 253 -72 322 -81 628 -81 312 0 393 11 635 84 378 115 670 289 951 569
209 207 424 525 424 625 0 103 -111 171 -201 122z m-3118 -962 c13 -16 12 -17
-3 -4 -17 13 -22 21 -14 21 2 0 10 -8 17 -17z"/>
<path d="M13805 5664 c-132 -21 -276 -84 -362 -159 -86 -76 -168 -215 -205
-353 -18 -65 -21 -107 -22 -267 -1 -220 8 -266 79 -411 123 -250 402 -385 737
-354 116 11 182 27 260 62 234 108 353 295 380 598 23 255 -29 478 -150 643
-50 66 -83 95 -175 149 -114 67 -206 90 -372 93 -77 2 -153 1 -170 -1z m260
-276 c177 -45 267 -217 268 -513 0 -137 -15 -220 -55 -298 -31 -61 -103 -132
-161 -158 -45 -21 -67 -24 -172 -24 -108 0 -125 2 -175 26 -93 44 -155 122
-193 244 -18 59 -22 94 -22 225 0 167 11 223 62 323 81 160 249 226 448 175z"/>
<path d="M15508 5660 c-185 -33 -322 -110 -427 -239 -195 -239 -226 -685 -68
-984 50 -95 148 -187 258 -241 115 -57 208 -76 367 -76 116 0 228 17 355 55
l57 16 0 135 c0 74 -3 134 -7 134 -5 0 -55 -14 -113 -32 -97 -29 -117 -31
-255 -32 -137 -1 -154 1 -202 23 -62 28 -146 113 -174 176 -67 151 -64 438 6
592 44 96 154 187 255 208 92 20 265 -6 358 -54 80 -41 81 -40 133 94 54 137
56 130 -40 166 -116 43 -204 60 -331 64 -69 2 -146 0 -172 -5z"/>
<path d="M7900 5648 c-1 -24 -2 -1341 -1 -1410 l1 -98 165 0 165 0 -2 285 c-3
315 -8 295 65 294 104 -1 111 -6 179 -109 128 -197 288 -454 288 -462 0 -4 83
-8 185 -8 102 0 185 2 185 5 0 3 -96 148 -214 323 l-214 318 56 29 c161 85
255 276 224 459 -23 144 -98 242 -233 309 -110 54 -216 67 -566 67 -156 0
-283 -1 -283 -2z m648 -294 c42 -21 63 -40 79 -69 30 -53 31 -133 2 -193 -19
-38 -32 -49 -88 -76 -61 -29 -76 -31 -188 -34 l-123 -4 0 200 c0 109 3 202 8
207 4 4 62 5 130 2 109 -4 129 -8 180 -33z"/>
<path d="M9696 5618 c-8 -18 -53 -141 -100 -273 -48 -132 -107 -292 -131 -355
-24 -63 -78 -209 -118 -325 -41 -115 -100 -280 -131 -365 -31 -85 -56 -156
-56 -157 0 -2 78 -3 173 -3 l172 0 18 63 c10 34 34 113 53 175 l35 112 287 0
c203 0 291 -3 299 -11 7 -7 36 -85 65 -175 l53 -164 178 0 c97 0 177 2 177 5
0 7 -69 195 -125 340 -70 181 -204 543 -265 715 -27 74 -70 194 -97 265 -28
72 -53 142 -57 158 l-6 27 -206 0 -205 0 -13 -32z m253 -351 c18 -59 61 -195
96 -302 36 -107 65 -197 65 -200 0 -2 -90 -6 -200 -7 -115 -2 -200 1 -200 6 0
5 38 127 85 270 46 144 90 282 97 308 7 27 15 45 19 40 4 -4 21 -55 38 -115z"/>
<path d="M10868 5644 c-11 -10 -10 -1476 1 -1492 7 -11 70 -13 337 -10 315 4
333 6 414 30 140 41 215 83 313 177 105 101 153 188 187 335 20 84 22 115 17
248 -3 97 -11 175 -21 213 -52 185 -169 328 -336 408 -167 81 -216 89 -585 94
-176 3 -323 1 -327 -3z m674 -283 c109 -42 182 -119 229 -240 18 -45 23 -84
27 -192 6 -199 -21 -299 -108 -393 -86 -93 -183 -127 -374 -129 l-121 -2 -3
480 c-1 264 0 486 3 494 9 23 275 10 347 -18z"/>
<path d="M12338 5642 c-2 -4 -2 -46 0 -93 l3 -86 42 -20 c23 -12 59 -26 79
-33 21 -6 40 -16 43 -21 8 -11 7 -981 -1 -988 -3 -3 -42 -19 -87 -36 l-82 -31
-3 -97 -3 -97 346 0 346 0 -3 97 -3 96 -85 31 -85 32 -3 491 c-2 385 1 493 10
500 7 6 36 18 63 27 28 9 64 25 81 35 31 19 31 20 32 100 0 45 -4 84 -9 87
-14 8 -678 15 -681 6z"/>
<path d="M16720 5628 c-29 -70 -256 -685 -300 -813 -20 -60 -56 -157 -78 -215
-51 -131 -162 -440 -162 -451 0 -5 78 -9 173 -9 l172 0 54 175 54 175 288 0
c264 0 287 -1 294 -17 31 -79 105 -285 111 -306 l6 -27 179 0 178 0 -18 53
c-10 28 -43 115 -74 192 -30 77 -89 235 -132 350 -43 116 -126 342 -186 502
-60 161 -109 295 -109 297 0 3 -9 30 -21 61 l-20 55 -200 0 c-197 0 -200 0
-209 -22z m240 -333 c13 -44 56 -180 97 -303 40 -122 73 -225 73 -227 0 -2
-90 -6 -201 -7 l-201 -3 6 30 c4 17 42 140 86 275 44 135 84 265 90 289 6 24
15 40 19 35 4 -5 18 -45 31 -89z"/>
<path d="M17877 5643 c-4 -3 -7 -343 -7 -755 l0 -748 165 0 165 0 2 288 3 287
50 3 c28 2 68 1 90 -3 40 -5 41 -7 176 -218 74 -116 155 -244 180 -284 l44
-72 183 -1 c100 0 182 4 182 8 0 5 -13 27 -29 50 -116 159 -391 578 -387 588
3 7 24 23 48 35 67 34 102 65 146 127 51 73 72 145 72 246 -1 189 -64 302
-210 376 -132 66 -232 80 -586 80 -154 0 -284 -3 -287 -7z m596 -268 c79 -20
102 -38 133 -101 23 -46 26 -62 20 -106 -18 -135 -107 -188 -318 -188 l-108 0
0 205 0 205 108 0 c63 0 131 -6 165 -15z"/>
<path d="M19428 5642 l-118 -3 0 -749 0 -750 458 0 457 0 2 130 3 130 -293 2
-292 3 -3 193 -2 192 270 0 c209 0 270 3 270 13 0 6 1 66 2 132 l2 120 -272 3
-272 2 0 165 0 165 295 0 296 0 -3 128 -3 127 -340 0 c-187 0 -393 -1 -457 -3z"/>
</g>
</svg>
